# xmcd CD database file
#
# Track frame offsets:
#	150
#	22030
#	38522
#
# Disc length: 753 seconds
#
# Revision: 0
# Processed by: cddbd v1.5.1PL0 Copyright (c) Steve Scherf et al.
# Submitted via: CDex 1.51
#
DISCID=1902ef03
DTITLE=A.S.A.P. - Silver And Gold (EP)
DYEAR=1989
DGENRE=Hard Rock
TTITLE0=Silber And Gold (12" Remix)
TTITLE1=Blood Brothers (Alternative Version)
TTITLE2=Fighting Man
EXTD=YEAR: 1989
EXTT0=
EXTT1=
EXTT2=
PLAYORDER=
